<svg width="16" height="16" fill="none" xmlns="http://www.w3.org/2000/svg" class=""><path d="M9.334 2c0-.368.298-.667.666-.667h4c.368 0 .667.299.667.667v4a.667.667 0 11-1.333 0V3.61L7.138 9.804a.667.667 0 01-.943-.943l6.196-6.195H10A.667.667 0 019.333 2z" fill="currentColor"></path><path d="M3.333 4.667a.667.667 0 00-.666.666v7.334a.667.667 0 00.667.666h7.333a.667.667 0 00.667-.666v-4a.667.667 0 011.333 0v4a2 2 0 01-2 2H3.334a2 2 0 01-2-2V5.333a2 2 0 012-2h4a.667.667 0 010 1.334h-4z" fill="currentColor"></path></svg>